<svg width="20" height="20" viewBox="0 0 20 20" fill="none" xmlns="http://www.w3.org/2000/svg">
<g clip-path="url(#clip0_60_2147)">
<path d="M13.3304 17.4966V15.8302C13.3304 14.9464 12.9793 14.0987 12.3543 13.4737C11.7293 12.8487 10.8816 12.4976 9.99772 12.4976H4.9987C4.11482 12.4976 3.26713 12.8487 2.64214 13.4737C2.01714 14.0987 1.66602 14.9464 1.66602 15.8302V17.4966" stroke="#2B7FFF" stroke-width="1.66634" stroke-linecap="round" stroke-linejoin="round"/>
<path d="M7.4987 9.16488C9.33929 9.16488 10.8314 7.67278 10.8314 5.83219C10.8314 3.9916 9.33929 2.49951 7.4987 2.49951C5.65811 2.49951 4.16602 3.9916 4.16602 5.83219C4.16602 7.67278 5.65811 9.16488 7.4987 9.16488Z" stroke="#2B7FFF" stroke-width="1.66634" stroke-linecap="round" stroke-linejoin="round"/>
<path d="M18.3296 17.4967V15.8303C18.329 15.0919 18.0833 14.3746 17.6309 13.791C17.1785 13.2074 16.545 12.7906 15.8301 12.606" stroke="#2B7FFF" stroke-width="1.66634" stroke-linecap="round" stroke-linejoin="round"/>
<path d="M13.3311 2.60791C14.0479 2.79146 14.6833 3.20838 15.1371 3.79294C15.5908 4.3775 15.8371 5.09645 15.8371 5.83645C15.8371 6.57644 15.5908 7.29539 15.1371 7.87995C14.6833 8.46451 14.0479 8.88143 13.3311 9.06498" stroke="#2B7FFF" stroke-width="1.66634" stroke-linecap="round" stroke-linejoin="round"/>
</g>
<defs>
<clipPath id="clip0_60_2147">
<rect width="19.9961" height="19.9961" fill="white"/>
</clipPath>
</defs>
</svg>
