<svg width="20" height="20" viewBox="0 0 20 20" fill="none" xmlns="http://www.w3.org/2000/svg">
<path d="M16.6626 8.33104C16.6626 12.4909 12.0479 16.8231 10.4983 18.1611C10.3539 18.2697 10.1782 18.3284 9.99755 18.3284C9.81693 18.3284 9.6412 18.2697 9.49684 18.1611C7.94722 16.8231 3.33252 12.4909 3.33252 8.33104C3.33252 6.56337 4.03473 4.86809 5.28466 3.61816C6.5346 2.36822 8.22987 1.66602 9.99755 1.66602C11.7652 1.66602 13.4605 2.36822 14.7104 3.61816C15.9604 4.86809 16.6626 6.56337 16.6626 8.33104Z" stroke="#00A63E" stroke-width="1.66626" stroke-linecap="round" stroke-linejoin="round"/>
<path d="M9.99743 10.8308C11.3778 10.8308 12.4968 9.71179 12.4968 8.33142C12.4968 6.95104 11.3778 5.83203 9.99743 5.83203C8.61706 5.83203 7.49805 6.95104 7.49805 8.33142C7.49805 9.71179 8.61706 10.8308 9.99743 10.8308Z" stroke="#00A63E" stroke-width="1.66626" stroke-linecap="round" stroke-linejoin="round"/>
</svg>
