<svg width="20" height="20" viewBox="0 0 20 20" fill="none" xmlns="http://www.w3.org/2000/svg">
<path d="M13.3298 17.4958V15.8296C13.3298 14.9457 12.9787 14.0981 12.3537 13.4731C11.7288 12.8482 10.8811 12.4971 9.9973 12.4971H4.99853C4.11469 12.4971 3.26705 12.8482 2.64209 13.4731C2.01712 14.0981 1.66602 14.9457 1.66602 15.8296V17.4958" stroke="#F54900" stroke-width="1.66626" stroke-linecap="round" stroke-linejoin="round"/>
<path d="M7.49804 9.16405C9.33854 9.16405 10.8306 7.67203 10.8306 5.83154C10.8306 3.99104 9.33854 2.49902 7.49804 2.49902C5.65754 2.49902 4.16553 3.99104 4.16553 5.83154C4.16553 7.67203 5.65754 9.16405 7.49804 9.16405Z" stroke="#F54900" stroke-width="1.66626" stroke-linecap="round" stroke-linejoin="round"/>
<path d="M18.329 17.4959V15.8297C18.3284 15.0913 18.0827 14.374 17.6303 13.7904C17.1779 13.2069 16.5445 12.7901 15.8296 12.6055" stroke="#F54900" stroke-width="1.66626" stroke-linecap="round" stroke-linejoin="round"/>
<path d="M13.3301 2.60742C14.0469 2.79096 14.6823 3.20786 15.136 3.79239C15.5897 4.37692 15.836 5.09583 15.836 5.83579C15.836 6.57575 15.5897 7.29467 15.136 7.8792C14.6823 8.46373 14.0469 8.88063 13.3301 9.06417" stroke="#F54900" stroke-width="1.66626" stroke-linecap="round" stroke-linejoin="round"/>
</svg>
