<svg width="16" height="16" viewBox="0 0 16 16" fill="none" xmlns="http://www.w3.org/2000/svg">
<g clip-path="url(#clip0_60_1507)">
<path d="M14.5308 6.66486C14.8352 8.15869 14.6183 9.71172 13.9162 11.065C13.2141 12.4182 12.0694 13.4899 10.6728 14.1012C9.2762 14.7126 7.71225 14.8267 6.24173 14.4245C4.7712 14.0224 3.483 13.1282 2.59194 11.8912C1.70088 10.6542 1.26083 9.14907 1.34517 7.62688C1.42951 6.10469 2.03315 4.65741 3.05541 3.52641C4.07767 2.39541 5.45677 1.64905 6.96273 1.41179C8.46868 1.17453 10.0105 1.46071 11.3309 2.22262" stroke="#00C950" stroke-width="1.33301" stroke-linecap="round" stroke-linejoin="round"/>
<path d="M5.99805 7.33153L7.99755 9.33104L14.6626 2.66602" stroke="#00C950" stroke-width="1.33301" stroke-linecap="round" stroke-linejoin="round"/>
</g>
<defs>
<clipPath id="clip0_60_1507">
<rect width="15.9961" height="15.9961" fill="white"/>
</clipPath>
</defs>
</svg>
