<svg width="16" height="16" viewBox="0 0 16 16" fill="none" xmlns="http://www.w3.org/2000/svg">
<g clip-path="url(#clip0_60_1842)">
<path d="M9.33105 2.66601V9.69095C9.8393 9.98439 10.2365 10.4373 10.4611 10.9795C10.6857 11.5218 10.7251 12.1229 10.5732 12.6898C10.4213 13.2567 10.0866 13.7576 9.62101 14.1149C9.1554 14.4721 8.58492 14.6658 7.99804 14.6658C7.41116 14.6658 6.84068 14.4721 6.37508 14.1149C5.90948 13.7576 5.57477 13.2567 5.42287 12.6898C5.27098 12.1229 5.31038 11.5218 5.53497 10.9795C5.75956 10.4373 6.15678 9.98439 6.66504 9.69095V2.66601C6.66504 2.31248 6.80548 1.97342 7.05547 1.72344C7.30545 1.47345 7.64451 1.33301 7.99804 1.33301C8.35158 1.33301 8.69063 1.47345 8.94062 1.72344C9.19061 1.97342 9.33105 2.31248 9.33105 2.66601Z" stroke="#FF6900" stroke-width="1.33301" stroke-linecap="round" stroke-linejoin="round"/>
</g>
<defs>
<clipPath id="clip0_60_1842">
<rect width="15.9961" height="15.9961" fill="white"/>
</clipPath>
</defs>
</svg>
