<svg width="24" height="24" viewBox="0 0 24 24" fill="none" xmlns="http://www.w3.org/2000/svg">
<path d="M12.2168 1.99951H11.7769C11.2466 1.99951 10.738 2.21017 10.363 2.58515C9.98801 2.96013 9.77735 3.46872 9.77735 3.99902V4.17898C9.77699 4.52961 9.68443 4.87399 9.50896 5.17757C9.33348 5.48114 9.08126 5.73323 8.7776 5.90855L8.3477 6.15849C8.04374 6.33398 7.69894 6.42637 7.34795 6.42637C6.99696 6.42637 6.65216 6.33398 6.3482 6.15849L6.19823 6.07851C5.73941 5.81384 5.19432 5.74203 4.68261 5.87887C4.1709 6.0157 3.73439 6.34998 3.46891 6.80833L3.24896 7.18823C2.98429 7.64706 2.91249 8.19215 3.04932 8.70386C3.18615 9.21557 3.52043 9.65208 3.97878 9.91756L4.12874 10.0175C4.43094 10.192 4.68223 10.4425 4.85761 10.7442C5.033 11.0459 5.12639 11.3882 5.1285 11.7371V12.247C5.1299 12.5993 5.03817 12.9458 4.86261 13.2513C4.68704 13.5567 4.43388 13.8104 4.12874 13.9866L3.97878 14.0765C3.52043 14.342 3.18615 14.7785 3.04932 15.2902C2.91249 15.802 2.98429 16.347 3.24896 16.8059L3.46891 17.1858C3.73439 17.6441 4.1709 17.9784 4.68261 18.1152C5.19432 18.2521 5.73941 18.1803 6.19823 17.9156L6.3482 17.8356C6.65216 17.6601 6.99696 17.5677 7.34795 17.5677C7.69894 17.5677 8.04374 17.6601 8.3477 17.8356L8.7776 18.0856C9.08126 18.2609 9.33348 18.513 9.50896 18.8165C9.68443 19.1201 9.77699 19.4645 9.77735 19.8151V19.9951C9.77735 20.5254 9.98801 21.034 10.363 21.4089C10.738 21.7839 11.2466 21.9946 11.7769 21.9946H12.2168C12.7471 21.9946 13.2556 21.7839 13.6306 21.4089C14.0056 21.034 14.2163 20.5254 14.2163 19.9951V19.8151C14.2166 19.4645 14.3092 19.1201 14.4847 18.8165C14.6601 18.513 14.9124 18.2609 15.216 18.0856L15.6459 17.8356C15.9499 17.6601 16.2947 17.5677 16.6457 17.5677C16.9966 17.5677 17.3415 17.6601 17.6454 17.8356L17.7954 17.9156C18.2542 18.1803 18.7993 18.2521 19.311 18.1152C19.8227 17.9784 20.2592 17.6441 20.5247 17.1858L20.7447 16.7959C21.0093 16.337 21.0811 15.792 20.9443 15.2802C20.8075 14.7685 20.4732 14.332 20.0148 14.0665L19.8649 13.9866C19.5597 13.8104 19.3066 13.5567 19.131 13.2513C18.9554 12.9458 18.8637 12.5993 18.8651 12.247V11.7471C18.8637 11.3948 18.9554 11.0483 19.131 10.7429C19.3066 10.4374 19.5597 10.1837 19.8649 10.0075L20.0148 9.91756C20.4732 9.65208 20.8075 9.21557 20.9443 8.70386C21.0811 8.19215 21.0093 7.64706 20.7447 7.18823L20.5247 6.80833C20.2592 6.34998 19.8227 6.0157 19.311 5.87887C18.7993 5.74203 18.2542 5.81384 17.7954 6.07851L17.6454 6.15849C17.3415 6.33398 16.9966 6.42637 16.6457 6.42637C16.2947 6.42637 15.9499 6.33398 15.6459 6.15849L15.216 5.90855C14.9124 5.73323 14.6601 5.48114 14.4847 5.17757C14.3092 4.87399 14.2166 4.52961 14.2163 4.17898V3.99902C14.2163 3.46872 14.0056 2.96013 13.6306 2.58515C13.2556 2.21017 12.7471 1.99951 12.2168 1.99951Z" stroke="#364153" stroke-width="1.99951" stroke-linecap="round" stroke-linejoin="round"/>
<path d="M11.9973 14.9961C13.6538 14.9961 14.9966 13.6533 14.9966 11.9968C14.9966 10.3404 13.6538 8.99756 11.9973 8.99756C10.3409 8.99756 8.99805 10.3404 8.99805 11.9968C8.99805 13.6533 10.3409 14.9961 11.9973 14.9961Z" stroke="#364153" stroke-width="1.99951" stroke-linecap="round" stroke-linejoin="round"/>
</svg>
